<?xml version="1.0" encoding="UTF-8"?>
<svg version="1.1" xmlns="http://www.w3.org/2000/svg" width="980" height="980">
<path d="M0 0 C41.07363481 0.36707649 80.13370838 15.77174479 112.69189453 40.25097656 C113.57876953 40.91097656 114.46564453 41.57097656 115.37939453 42.25097656 C131.2540963 54.6409877 144.47633885 69.59641337 155.69189453 86.25097656 C156.10117187 86.85780273 156.51044922 87.46462891 156.93212891 88.08984375 C171.5840681 110.14446426 180.90935188 135.30223626 185.69189453 161.25097656 C186.05927734 163.13429688 186.05927734 163.13429688 186.43408203 165.05566406 C192.288669 201.7069825 186.35514831 242.14394448 169.69189453 275.25097656 C169.06528931 276.58986938 169.06528931 276.58986938 168.42602539 277.95581055 C166.69189453 280.25097656 166.69189453 280.25097656 164.14819336 280.81860352 C163.15843506 280.79241943 162.16867676 280.76623535 161.14892578 280.73925781 C160.07578125 280.72314453 159.00263672 280.70703125 157.89697266 280.69042969 C156.77742188 280.64853516 155.65787109 280.60664062 154.50439453 280.56347656 C153.37324219 280.54091797 152.24208984 280.51835938 151.07666016 280.49511719 C148.28041477 280.43612467 145.48681357 280.35385896 142.69189453 280.25097656 C144.21685373 276.36654613 145.96242218 272.67761036 147.81689453 268.93847656 C155.90460622 251.92602141 160.93649712 233.84233932 163.69189453 215.25097656 C163.918125 213.77757812 163.918125 213.77757812 164.14892578 212.27441406 C168.86134009 172.6901339 158.44931571 129.96476951 135.69189453 97.25097656 C135.11375 96.40212891 135.11375 96.40212891 134.52392578 95.53613281 C122.82328837 78.50720514 108.19418921 63.31436219 90.69189453 52.25097656 C89.29339066 51.33180671 87.8949567 50.41253046 86.49658203 49.49316406 C62.72621564 34.14909451 35.72073186 26.15051146 7.69189453 23.25097656 C7.03189453 22.92097656 6.37189453 22.59097656 5.69189453 22.25097656 C5.69189453 86.60097656 5.69189453 150.95097656 5.69189453 217.25097656 C50.57189453 217.25097656 95.45189453 217.25097656 141.69189453 217.25097656 C135.54927138 229.53622286 127.47997037 240.49446472 118.69189453 251.00097656 C118.11204678 251.69617527 117.53219902 252.39137398 116.93478012 253.10763931 C101.22682272 271.53302871 83.97513403 281.42142873 59.85120487 283.42756176 C55.25596695 283.76343372 50.65904537 283.97820787 46.05517578 284.15332031 C45.34998487 284.18186261 44.64479396 284.21040492 43.91823363 284.23981214 C10.26553409 285.52206505 -23.91491641 282.13633365 -57.30810547 280.25097656 C-57.63810547 220.85097656 -57.96810547 161.45097656 -58.30810547 100.25097656 C-59.29810547 101.24097656 -60.28810547 102.23097656 -61.30810547 103.25097656 C-61.96810547 103.25097656 -62.62810547 103.25097656 -63.30810547 103.25097656 C-63.30810547 103.91097656 -63.30810547 104.57097656 -63.30810547 105.25097656 C-64.88232422 106.76660156 -64.88232422 106.76660156 -66.99560547 108.50097656 C-73.78316331 114.02121609 -73.78316331 114.02121609 -76.92334461 121.81600761 C-76.94414793 123.15850651 -76.9378446 124.50160535 -76.90937805 125.84396362 C-76.91365018 126.58821315 -76.9179223 127.33246268 -76.92232388 128.09926522 C-76.93053218 130.58258517 -76.90310715 133.0642001 -76.87573242 135.54736328 C-76.87432147 137.33147644 -76.87511485 139.11559251 -76.87794495 140.89970398 C-76.87937868 145.73622631 -76.84999573 150.57212779 -76.81507516 155.40850592 C-76.78380462 160.46534923 -76.78088036 165.522207 -76.77494812 170.57913208 C-76.75941175 180.1520054 -76.71838598 189.72459298 -76.66820067 199.29734051 C-76.61230087 210.19686913 -76.58481908 221.09641144 -76.5597235 231.99604774 C-76.50747004 254.41451571 -76.41953164 276.83273012 -76.30810547 299.25097656 C-75.13581988 299.25005477 -73.9635343 299.24913298 -72.75572491 299.24818325 C-44.94506655 299.22653815 -17.13440884 299.21004243 10.67625617 299.19991123 C14.09724046 299.19866049 17.51822472 299.19736617 20.93920898 299.19604492 C21.62028222 299.19578261 22.30135546 299.1955203 23.00306728 299.19525004 C34.039404 299.19089551 45.07573553 299.18300914 56.11206917 299.17382377 C67.43141779 299.16448123 78.75076255 299.15899456 90.07011527 299.15688807 C96.43009335 299.15558159 102.79005964 299.15249966 109.15003395 299.14524651 C115.13104117 299.13848053 121.11203169 299.13636079 127.09304237 299.13786888 C129.2929239 299.13759281 131.49280595 299.13559111 133.69268417 299.13177109 C136.68693334 299.12682487 139.68111874 299.12798177 142.67536926 299.13072205 C143.99296579 299.12635278 143.99296579 299.12635278 145.33718044 299.12189525 C148.70658989 299.13027911 151.47284353 299.17795956 154.69189453 300.25097656 C149.86349532 310.62843158 141.53367146 319.0819304 133.69189453 327.25097656 C133.17965332 327.79044922 132.66741211 328.32992188 132.13964844 328.88574219 C100.51979566 362.05491903 53.34752921 384.68671474 7.25 386.37719727 C-41.29947746 387.369868 -84.01985606 375.35074471 -123.30810547 346.25097656 C-124.26201172 345.54585937 -125.21591797 344.84074219 -126.19873047 344.11425781 C-139.88201454 333.43206212 -152.39496988 320.49458717 -162.30810547 306.25097656 C-162.92540527 305.37626709 -162.92540527 305.37626709 -163.55517578 304.48388672 C-179.00043134 282.50679406 -189.88092281 257.61157805 -195.30810547 231.25097656 C-195.54932129 230.11305664 -195.54932129 230.11305664 -195.79541016 228.95214844 C-205.50953788 180.92229631 -194.47223451 128.76429494 -167.56591797 88.11962891 C-164.60652034 83.72303935 -161.55734144 79.43800016 -158.30810547 75.25097656 C-157.69451172 74.43371094 -157.08091797 73.61644531 -156.44873047 72.77441406 C-143.98249483 56.7809102 -129.00868727 43.63297867 -112.30810547 32.25097656 C-110.78443359 31.19330078 -110.78443359 31.19330078 -109.22998047 30.11425781 C-88.46055076 16.27833533 -61.25609022 4.61587231 -36.30810547 2.25097656 C-33.93873982 4.62034221 -35.0747751 10.5066608 -35.05810547 13.68847656 C-35.02716797 15.15897461 -35.02716797 15.15897461 -34.99560547 16.65917969 C-34.98787109 18.06393555 -34.98787109 18.06393555 -34.97998047 19.49707031 C-34.97063477 20.36001709 -34.96128906 21.22296387 -34.95166016 22.11206055 C-35.06928711 22.81790283 -35.18691406 23.52374512 -35.30810547 24.25097656 C-38.68908386 26.50496216 -41.72595743 27.07770579 -45.62060547 27.87597656 C-86.74856709 37.0794677 -124.38787203 62.54470728 -147.06152344 98.27783203 C-147.47289551 98.92896973 -147.88426758 99.58010742 -148.30810547 100.25097656 C-149.12179234 101.49193753 -149.9355917 102.73282475 -150.74951172 103.97363281 C-174.18828702 140.52347305 -180.63981022 187.72470146 -171.77197266 229.79443359 C-166.93490318 251.11012058 -158.60714482 271.15196919 -146.30810547 289.25097656 C-145.68548828 290.24484375 -145.06287109 291.23871094 -144.42138672 292.26269531 C-133.3299143 309.08907627 -117.42149822 324.72544829 -100.15087891 335.13476562 C-98.29445717 336.25924365 -96.47724328 337.4321109 -94.65966797 338.61816406 C-58.87655127 361.56182221 -13.63084675 368.08584333 27.69189453 360.25097656 C28.78026611 360.05012451 28.78026611 360.05012451 29.890625 359.84521484 C57.21946973 354.62737247 85.80649714 342.13637396 105.69189453 322.25097656 C38.37189453 322.25097656 -28.94810547 322.25097656 -98.30810547 322.25097656 C-98.92285542 308.11172768 -99.45605934 294.09928739 -99.4375 279.96801758 C-99.43886116 278.17467209 -99.44064504 276.38132688 -99.44281006 274.58798218 C-99.44729465 269.80176242 -99.44563394 265.01556466 -99.44243097 260.22934461 C-99.4398661 255.1869891 -99.44225569 250.14463525 -99.44381714 245.10227966 C-99.44562444 236.65794542 -99.443268 228.21362 -99.43847656 219.76928711 C-99.43301017 210.02314447 -99.43481954 200.27702267 -99.44030297 190.53088051 C-99.44484376 182.12101773 -99.4454807 173.71116121 -99.4428643 165.30129761 C-99.44131025 160.29575155 -99.44108434 155.29021529 -99.44440079 150.28466988 C-99.44729448 145.59195477 -99.44527631 140.89926662 -99.43950653 136.20655441 C-99.43818811 134.48929705 -99.43855741 132.7720374 -99.4407692 131.05478096 C-99.44351622 128.70503383 -99.44005671 126.35537223 -99.43508911 124.00563049 C-99.43452357 122.03724386 -99.43452357 122.03724386 -99.43394661 120.02909184 C-99.03651107 108.09692651 -99.03651107 108.09692651 -95.88551331 104.97314453 C-95.37376556 104.44888382 -94.86201782 103.92462311 -94.33476257 103.38447571 C-93.77110489 102.84284286 -93.2074472 102.30121002 -92.62670898 101.74316406 C-92.03480774 101.14702805 -91.44290649 100.55089203 -90.83306885 99.93669128 C-88.88414819 97.98247649 -86.91145637 96.05437159 -84.93701172 94.12597656 C-83.57421471 92.77116454 -82.21281912 91.4149415 -80.85276794 90.05737305 C-78.00579361 87.22261816 -75.14785885 84.39959929 -72.28051758 81.58544922 C-68.59835657 77.97137053 -64.93612462 74.33790927 -61.28079319 70.69671631 C-57.79787305 67.22888974 -54.30534221 63.77081066 -50.81201172 60.31347656 C-50.14341188 59.6501532 -49.47481205 58.98682983 -48.78595161 58.30340576 C-46.90220672 56.43803024 -45.01177772 54.57973086 -43.11889648 52.72363281 C-42.55726303 52.16580612 -41.99562958 51.60797943 -41.41697693 51.0332489 C-37.53771351 47.25097656 -37.53771351 47.25097656 -35.30810547 47.25097656 C-35.30810547 116.88097656 -35.30810547 186.51097656 -35.30810547 258.25097656 C-18.00373047 258.43660156 -0.69935547 258.62222656 17.12939453 258.81347656 C22.56077881 258.9160376 27.99216309 259.01859863 33.58813477 259.12426758 C38.52559767 259.13450283 38.52559767 259.13450283 43.46302795 259.12217712 C45.63508249 259.12746958 47.8072309 259.16584672 49.97828674 259.23191833 C61.76419847 259.56650295 70.53003738 259.45871647 79.46988773 251.0866766 C85.33531696 245.79880327 85.33531696 245.79880327 88.69189453 239.25097656 C54.04189453 239.25097656 19.39189453 239.25097656 -16.30810547 239.25097656 C-16.3484085 179.60696403 -16.3484085 179.60696403 -16.35693359 154.69824219 C-16.3588916 149.00594073 -16.36091212 143.31363929 -16.36303711 137.62133789 C-16.36330086 136.90785511 -16.36356461 136.19437234 -16.36383635 135.45926887 C-16.36819113 123.92565736 -16.37607795 112.39205082 -16.38525826 100.85844225 C-16.39459458 89.03059794 -16.40016103 77.20275623 -16.40219396 65.37490839 C-16.40344552 58.72771345 -16.40659021 52.08052777 -16.41383553 45.43333626 C-16.42059157 39.18476255 -16.42272328 32.93620481 -16.42121315 26.68762779 C-16.42148967 24.38692768 -16.42349724 22.08622706 -16.42731094 19.78553009 C-16.43224171 16.65921051 -16.43110605 13.53295229 -16.42835999 10.40663147 C-16.43272925 9.02193219 -16.43272925 9.02193219 -16.43718678 7.60925919 C-16.41138795 -3.15885612 -9.16242745 0.00251473 0 0 Z " fill="#2C292A" transform="translate(495.30810546875,296.7490234375)"/>
<path d="M0 0 C0.99 0.33 1.98 0.66 3 1 C2.01 2.485 2.01 2.485 1 4 C0.81139761 6.4492591 0.73897999 8.78343624 0.75949097 11.23222351 C0.75778212 11.97390976 0.75607327 12.71559601 0.75431263 13.47975761 C0.75101114 15.97187269 0.76203217 18.46372016 0.77294922 20.95581055 C0.77351319 22.73948154 0.77319705 24.523153 0.77206421 26.30682373 C0.77148915 31.15570546 0.78326826 36.00448874 0.79721212 40.85334754 C0.80969395 45.91824329 0.81088797 50.98314117 0.81326294 56.04804993 C0.81948521 65.64215739 0.83590613 75.2362194 0.85596192 84.83030683 C0.87829769 95.75156491 0.8893085 106.67282513 0.89935279 117.59410036 C0.92027171 140.06275879 0.9554622 162.53137685 1 185 C2.17228559 184.99907821 3.34457117 184.99815641 4.55238056 184.99720669 C32.36303892 184.97556159 60.17369663 184.95906587 87.98436164 184.94893467 C91.40534592 184.94768392 94.82633019 184.9463896 98.24731445 184.94506836 C98.92838769 184.94480605 99.60946093 184.94454374 100.31117275 184.94427348 C111.34750947 184.93991894 122.383841 184.93203257 133.42017464 184.9228472 C144.73952326 184.91350467 156.05886802 184.90801799 167.37822074 184.90591151 C173.73819882 184.90460503 180.09816511 184.9015231 186.45813942 184.89426994 C192.43914664 184.88750397 198.42013716 184.88538423 204.40114784 184.88689232 C206.60102936 184.88661625 208.80091142 184.88461455 211.00078964 184.88079453 C213.99503881 184.87584831 216.98922421 184.8770052 219.98347473 184.87974548 C221.30107126 184.87537622 221.30107126 184.87537622 222.6452859 184.87091869 C226.01469536 184.87930255 228.780949 184.926983 232 186 C230.70700306 188.88437779 229.34058637 190.87219421 227 193 C226.67 191.35 226.34 189.7 226 188 C224.83617829 187.99576806 223.67235659 187.99153612 222.47326756 187.98717594 C194.87477996 187.88659953 167.27631584 187.7809094 139.67787224 187.66888306 C136.28435313 187.65511273 132.89083385 187.64138575 129.49731445 187.62768555 C128.82169783 187.62495724 128.1460812 187.62222894 127.44999134 187.61941796 C116.49638061 187.5752881 105.5427595 187.5346734 94.58913059 187.49534739 C83.35791673 187.45494692 72.12672241 187.41071849 60.89553636 187.36312145 C54.58369994 187.33649471 48.27186744 187.31164109 41.96000862 187.29092598 C36.02659371 187.27139835 30.09321585 187.24726642 24.15983391 187.21950912 C21.97524562 187.21011809 19.79064918 187.20245026 17.60604858 187.19658089 C14.63735413 187.18835443 11.66875044 187.17408782 8.7000885 187.15821838 C7.82364703 187.15724028 6.94720555 187.15626217 6.04420525 187.15525442 C0.11412121 187.11412121 0.11412121 187.11412121 -1 186 C-1.09985121 183.64129302 -1.1344267 181.3118133 -1.12698364 178.95254517 C-1.12854363 178.20651736 -1.13010362 177.46048955 -1.13171089 176.69185483 C-1.13572375 174.17296821 -1.13253012 171.65414106 -1.12939453 169.13525391 C-1.13074847 167.33704086 -1.13252836 165.53882809 -1.13470459 163.74061584 C-1.13928048 158.84186266 -1.13748856 153.94313043 -1.1343255 149.04437685 C-1.13180192 143.92748233 -1.13413951 138.81058966 -1.13571167 133.69369507 C-1.1375337 125.09690019 -1.13512653 116.50011389 -1.13037109 107.90332031 C-1.12493187 97.9553161 -1.12668853 88.00733239 -1.1321975 78.05932868 C-1.1367318 69.53109264 -1.13737751 61.00286279 -1.13475883 52.47462595 C-1.13319736 47.37557347 -1.13299868 42.27653065 -1.13629532 37.17747879 C-1.1391785 32.38247402 -1.13719006 27.58749573 -1.13140106 22.79249382 C-1.13007573 21.02961585 -1.13046376 19.26673566 -1.13266373 17.50385857 C-1.13538415 15.10301605 -1.13198303 12.70225914 -1.12698364 10.30142212 C-1.13032973 9.24748778 -1.13032973 9.24748778 -1.13374341 8.17226183 C-1.12153279 5.16230602 -0.96061688 2.88185065 0 0 Z " fill="#AAAAAA" transform="translate(418,411)"/>
<path d="M0 0 C0.33 0 0.66 0 1 0 C1 69.3 1 138.6 1 210 C67.66 210 134.32 210 203 210 C203 210.33 203 210.66 203 211 C135.68 211 68.36 211 -1 211 C-2 190 -2 190 -1 183 C-0.90287024 180.39476063 -0.84546503 177.81550264 -0.84178162 175.21083069 C-0.83684364 174.45755963 -0.83190566 173.70428858 -0.82681805 172.92819113 C-0.81154165 170.42096087 -0.80310937 167.91375603 -0.79467773 165.40649414 C-0.78509144 163.60252665 -0.77508093 161.79856136 -0.76467896 159.99459839 C-0.73770518 155.10881928 -0.71665497 150.22303058 -0.69667697 145.33721852 C-0.67477086 140.22694619 -0.64740484 135.11670315 -0.62062073 130.00645447 C-0.57075629 120.33460297 -0.52579433 110.66273515 -0.48259836 100.99085182 C-0.43317251 89.97757859 -0.37827425 78.96433475 -0.32291877 67.95108998 C-0.20919468 45.3007541 -0.10233487 22.65039 0 0 Z " fill="#1E1C1D" transform="translate(398,406)"/>
<path d="M0 0 C0.56864651 0.3242565 1.13729301 0.64851299 1.72317123 0.98259544 C4.1764343 2.07883995 5.75988705 2.25912962 8.42926025 2.2784729 C9.75011627 2.29521812 9.75011627 2.29521812 11.09765625 2.31230164 C12.5347998 2.31554192 12.5347998 2.31554192 14.00097656 2.31884766 C15.01593201 2.32889328 16.03088745 2.3389389 17.07659912 2.34928894 C20.43126866 2.38017888 23.78585817 2.3971724 27.140625 2.4140625 C29.4666208 2.43276945 31.79260979 2.45234251 34.11859131 2.4727478 C40.24072249 2.52412484 46.36287569 2.56372085 52.48510742 2.60089111 C58.73231477 2.64089576 64.97943009 2.69200426 71.2265625 2.7421875 C83.48431041 2.83901281 95.74211021 2.92339654 108 3 C107 6 107 6 105 7 C103.59351537 7.09176684 102.18275905 7.12193647 100.77328491 7.12025452 C99.88704941 7.12162918 99.0008139 7.12300385 98.08772278 7.12442017 C97.11308578 7.12082489 96.13844879 7.11722961 95.13427734 7.11352539 C94.10986038 7.11367142 93.08544342 7.11381744 92.02998352 7.1139679 C88.6319469 7.11326926 85.23396458 7.10547911 81.8359375 7.09765625 C79.48467031 7.0957919 77.13340273 7.09436808 74.78213501 7.09336853 C68.58429905 7.08954471 62.3864864 7.07971556 56.18865967 7.06866455 C49.86796382 7.05844753 43.54726422 7.05387028 37.2265625 7.04882812 C24.81769807 7.03809319 12.40885097 7.02101838 0 7 C0 4.69 0 2.38 0 0 Z " fill="#211E1F" transform="translate(480,528)"/>
<path d="M0 0 C1.32 0 2.64 0 4 0 C4 60.06 4 120.12 4 182 C49.21 182 94.42 182 141 182 C141 182.33 141 182.66 141 183 C95.46 183 49.92 183 3 183 C2.67 123.6 2.34 64.2 2 3 C1.01 3.495 1.01 3.495 0 4 C0 2.68 0 1.36 0 0 Z " fill="#828082" transform="translate(435,394)"/>
<path d="M0 0 C0.99 0.33 1.98 0.66 3 1 C2.01 2.485 2.01 2.485 1 4 C0.8113607 6.46170965 0.73899023 8.80893029 0.75949097 11.27018738 C0.75778212 12.01595718 0.75607327 12.76172699 0.75431263 13.53009588 C0.75101104 16.03602994 0.76203235 18.54169791 0.77294922 21.04760742 C0.77351319 22.84113051 0.77319705 24.63465406 0.77206421 26.42817688 C0.77148914 31.30391704 0.78326839 36.17955928 0.79721212 41.05527663 C0.8096938 46.14819963 0.81088796 51.24112474 0.81326294 56.33406067 C0.81948526 65.98129196 0.83590623 75.62847806 0.85596192 85.27568942 C0.87829755 96.25740588 0.88930847 107.23912447 0.89935279 118.22085798 C0.92027181 140.8139304 0.95546237 163.40696267 1 186 C0.34 186 -0.32 186 -1 186 C-1.02333815 162.19157752 -1.04098369 138.38315675 -1.05181217 114.57472515 C-1.05697318 103.52059739 -1.06401217 92.46647672 -1.07543945 81.41235352 C-1.08539224 71.78000106 -1.09185485 62.14765374 -1.09408849 52.51529628 C-1.09539458 47.4128724 -1.09847406 42.31046323 -1.10573006 37.20804405 C-1.11249963 32.40895294 -1.11461503 27.60988264 -1.11310768 22.8107872 C-1.11338359 21.04629592 -1.11538316 19.28180398 -1.11920547 17.51731682 C-1.12415732 15.11423576 -1.12299272 12.71123401 -1.12025452 10.30815125 C-1.12316736 9.60484623 -1.1260802 8.90154122 -1.12908131 8.17692393 C-1.11975925 5.16437246 -0.96147107 2.8844132 0 0 Z " fill="#535353" transform="translate(418,411)"/>
<path d="M0 0 C20.46 0 40.92 0 62 0 C60.38262276 3.23475448 59.52370777 4.70572021 57 7 C56.505 4.525 56.505 4.525 56 2 C37.52 1.67 19.04 1.34 0 1 C0 0.67 0 0.34 0 0 Z " fill="#373737" transform="translate(588,597)"/>
<path d="M0 0 C0 0.99 0 1.98 0 3 C0.3062434 4.33981486 0.63451555 5.67511887 1 7 C-0.65 7.66 -2.3 8.32 -4 9 C-4 9.66 -4 10.32 -4 11 C-5.65 11.33 -7.3 11.66 -9 12 C-9.061875 12.61875 -9.12375 13.2375 -9.1875 13.875 C-10 16 -10 16 -12.375 17.0625 C-13.674375 17.5265625 -13.674375 17.5265625 -15 18 C-16.77277259 19.52007842 -16.77277259 19.52007842 -18 21 C-18.66 20.67 -19.32 20.34 -20 20 C-13.4 13.4 -6.8 6.8 0 0 Z " fill="#3D3C3C" transform="translate(426,376)"/>
<path d="M0 0 C1.1446875 0.2475 1.1446875 0.2475 2.3125 0.5 C5.03596236 1.09145396 5.03596236 1.09145396 8 1 C7.67 2.65 7.34 4.3 7 6 C6.34 6 5.68 6 5 6 C5 6.66 5 7.32 5 8 C5.495 8.4125 5.99 8.825 6.5 9.25 C8.65847858 11.76822501 8.21374961 13.79375585 8 17 C4.35916474 12.81978173 1.11130576 8.14811543 -1 3 C-0.67 2.01 -0.34 1.02 0 0 Z " fill="#373536" transform="translate(319,576)"/>
<path d="M0 0 C4.91935902 4.11619836 9.52647956 8.40410362 14 13 C12.02 13.99 12.02 13.99 10 15 C9.67 14.34 9.34 13.68 9 13 C6.97536745 12.34786708 6.97536745 12.34786708 5 12 C5.33 11.34 5.66 10.68 6 10 C5.030625 9.54625 4.06125 9.0925 3.0625 8.625 C0 7 0 7 -1 5 C-0.34 4.67 0.32 4.34 1 4 C0.34 4 -0.32 4 -1 4 C-0.67 2.68 -0.34 1.36 0 0 Z " fill="#636162" transform="translate(362,604)"/>
<path d="M0 0 C3.375 0.75 3.375 0.75 7 2 C8.1875 4.0625 8.1875 4.0625 9 6 C9.9590625 6.2165625 9.9590625 6.2165625 10.9375 6.4375 C13 7 13 7 14.75 9.5625 C15.1625 10.366875 15.575 11.17125 16 12 C11.78345644 10.51364884 8.37521395 8.38750841 4.6875 5.875 C3.61886719 5.15054687 2.55023437 4.42609375 1.44921875 3.6796875 C0.64097656 3.12539063 -0.16726563 2.57109375 -1 2 C-0.67 1.34 -0.34 0.68 0 0 Z " fill="#626162" transform="translate(576,340)"/>
<path d="M0 0 C5.79090478 3.15014496 11.44805341 6.44493883 17 10 C15.0625 10.5625 15.0625 10.5625 13 11 C12.67 10.67 12.34 10.34 12 10 C11.01 10 10.02 10 9 10 C8.34 9.01 7.68 8.02 7 7 C4.43717258 6.27034634 4.43717258 6.27034634 2 6 C2 5.01 2 4.02 2 3 C1.34 2.67 0.68 2.34 0 2 C0 1.34 0 0.68 0 0 Z " fill="#5B5A5A" transform="translate(393,631)"/>
<path d="M0 0 C0.45375 0.495 0.9075 0.99 1.375 1.5 C2.87635519 3.22609337 2.87635519 3.22609337 5 3 C4.40984815 8.50808397 3.43336231 13.64878069 2 19 C1.67 19 1.34 19 1 19 C-0.125 11.25 -0.125 11.25 1 9 C0.67 8.34 0.34 7.68 0 7 C-0.04022391 4.6670134 -0.04320247 2.33293334 0 0 Z " fill="#6C696A" transform="translate(321,437)"/>
<path d="M0 0 C0.33 0 0.66 0 1 0 C1.22630724 4.39510126 1.42790777 8.7909994 1.625 13.1875 C1.68945312 14.43337891 1.75390625 15.67925781 1.8203125 16.96289062 C1.871875 18.16494141 1.9234375 19.36699219 1.9765625 20.60546875 C2.02893066 21.71043701 2.08129883 22.81540527 2.13525391 23.95385742 C1.99623333 27.08483171 1.34010352 29.18944159 0 32 C-0.33 32 -0.66 32 -1 32 C-0.67 21.44 -0.34 10.88 0 0 Z " fill="#8B8A8B" transform="translate(661,480)"/>
<path d="M0 0 C5.50808397 0.59015185 10.64878069 1.56663769 16 3 C16 3.33 16 3.66 16 4 C14.02 4 12.04 4 10 4 C10 4.66 10 5.32 10 6 C8.35 5.67 6.7 5.34 5 5 C5 4.34 5 3.68 5 3 C4.01 3 3.02 3 2 3 C2 2.34 2 1.68 2 1 C1.34 0.67 0.68 0.34 0 0 Z " fill="#6C6A6A" transform="translate(440,654)"/>
<path d="M0 0 C5.94 1.98 11.88 3.96 18 6 C16.02 6.99 16.02 6.99 14 8 C13.67 7.34 13.34 6.68 13 6 C11.68 6.33 10.36 6.66 9 7 C8.67 6.34 8.34 5.68 8 5 C7.67 5 7.34 5 7 5 C7 5.66 7 6.32 7 7 C5.125 6.6875 5.125 6.6875 3 6 C1 3 1 3 0 0 Z " fill="#6C6A6A" transform="translate(422,647)"/>
<path d="M0 0 C-1.06893218 1.03590338 -2.15578488 2.05333942 -3.25 3.0625 C-4.15492188 3.91521484 -4.15492188 3.91521484 -5.078125 4.78515625 C-7 6 -7 6 -9.109375 5.65234375 C-9.73328125 5.43707031 -10.3571875 5.22179687 -11 5 C-11.66 5.165 -12.32 5.33 -13 5.5 C-15.36221954 6.09055488 -16.69081248 5.6542698 -19 5 C-16.21142 3.96995707 -13.41969712 2.95069003 -10.625 1.9375 C-9.8309375 1.64294922 -9.036875 1.34839844 -8.21875 1.04492188 C-7.45820312 0.77099609 -6.69765625 0.49707031 -5.9140625 0.21484375 C-5.2123291 -0.04176025 -4.5105957 -0.29836426 -3.78759766 -0.56274414 C-2 -1 -2 -1 0 0 Z " fill="#726F70" transform="translate(559,648)"/>
<path d="M0 0 C0 2.66053211 -0.19335496 4.49940039 -1 7 C-2 8 -3 9 -4 10 C-4.66 10 -5.32 10 -6 10 C-6.33 10.66 -6.66 11.32 -7 12 C-8.32 11.67 -9.64 11.34 -11 11 C-7.37 7.37 -3.74 3.74 0 0 Z " fill="#686566" transform="translate(583,538)"/>
<path d="M0 0 C0.33 0.99 0.66 1.98 1 3 C1.66 3 2.32 3 3 3 C3.33 2.34 3.66 1.68 4 1 C3.979375 2.11375 3.95875 3.2275 3.9375 4.375 C3.73619282 7.83215921 3.73619282 7.83215921 5 10 C5.07065617 12.04055005 5.08421976 14.08334257 5.0625 16.125 C5.05347656 17.22070312 5.04445313 18.31640625 5.03515625 19.4453125 C5.02355469 20.28835938 5.01195312 21.13140625 5 22 C4.67 22 4.34 22 4 22 C3.32810344 19.08444885 2.66230692 16.16773049 2 13.25 C1.80921875 12.425 1.6184375 11.6 1.421875 10.75 C1.24140625 9.95078125 1.0609375 9.1515625 0.875 8.328125 C0.70742188 7.5949707 0.53984375 6.86181641 0.3671875 6.10644531 C0 4 0 4 0 0 Z " fill="#929091" transform="translate(654,440)"/>
<path d="M0 0 C0.33 0.66 0.66 1.32 1 2 C0.67 2.99 0.34 3.98 0 5 C0.66 5.33 1.32 5.66 2 6 C1.01 6.495 1.01 6.495 0 7 C-0.268125 7.66 -0.53625 8.32 -0.8125 9 C-2 11 -2 11 -4.625 11.75 C-5.40875 11.8325 -6.1925 11.915 -7 12 C-5.44298069 7.32894208 -2.91552627 3.91294315 0 0 Z " fill="#4B4A4A" transform="translate(332,379)"/>
<path d="M0 0 C0.99 0.33 1.98 0.66 3 1 C1.58192622 5.47238653 -0.11304374 9.71146306 -2 14 C-4 11 -4 11 -5 8 C-3.35 7.34 -1.7 6.68 0 6 C-0.2784375 4.7934375 -0.2784375 4.7934375 -0.5625 3.5625 C-0.706875 2.716875 -0.85125 1.87125 -1 1 C-0.67 0.67 -0.34 0.34 0 0 Z " fill="#444344" transform="translate(335,409)"/>
<path d="M0 0 C0.66 0 1.32 0 2 0 C2 0.66 2 1.32 2 2 C3.65 2 5.3 2 7 2 C7.33 4.31 7.66 6.62 8 9 C8.66 9 9.32 9 10 9 C9.67 9.99 9.34 10.98 9 12 C4.99027798 8.32442148 2.54664585 4.81033104 0 0 Z " fill="#4F4F4F" transform="translate(327,593)"/>
<path d="M0 0 C0.99 0.99 1.98 1.98 3 3 C1.3584951 6.2830098 -1.82902851 7.27037919 -5 9 C-5.66 8.34 -6.32 7.68 -7 7 C-4.66666667 4.66666667 -2.33333333 2.33333333 0 0 Z " fill="#1C1A1B" transform="translate(588,535)"/>
<path d="M0 0 C0.66 0.66 1.32 1.32 2 2 C0.375 7.75 0.375 7.75 -3 10 C-3.75 7.25 -3.75 7.25 -4 4 C-2.0625 1.625 -2.0625 1.625 0 0 Z " fill="#373636" transform="translate(326,390)"/>
<path d="M0 0 C0.99 0.495 0.99 0.495 2 1 C1.01 1.495 1.01 1.495 0 2 C0 1.34 0 0.68 0 0 Z M-1.625 2.1875 C-1.08875 2.455625 -0.5525 2.72375 0 3 C-2.80804268 5.96404505 -5.18315774 8.44499019 -9 10 C-9.33 9.01 -9.66 8.02 -10 7 C-4.58461538 1.95384615 -4.58461538 1.95384615 -1.625 2.1875 Z " fill="#1F1E1E" transform="translate(416,390)"/>
<path d="M0 0 C2.04119788 1.61594832 4.04072937 3.2856382 6 5 C6 5.66 6 6.32 6 7 C6.66 7.33 7.32 7.66 8 8 C7.34 8 6.68 8 6 8 C5.67 8.66 5.34 9.32 5 10 C2.69 7.69 0.38 5.38 -2 3 C-1.34 2.67 -0.68 2.34 0 2 C0 1.34 0 0.68 0 0 Z " fill="#5D5C5C" transform="translate(606,360)"/>
<path d="M0 0 C1.98 0.66 3.96 1.32 6 2 C6.33 3.65 6.66 5.3 7 7 C4.36 7.33 1.72 7.66 -1 8 C-1 4.88742431 -0.82638376 2.89234315 0 0 Z " fill="#4E4C4D" transform="translate(577,318)"/>
<path d="M0 0 C2.31 0.66 4.62 1.32 7 2 C6.67 2.61875 6.34 3.2375 6 3.875 C4.85806765 5.91018344 4.85806765 5.91018344 5 8 C3.02 7.34 1.04 6.68 -1 6 C-0.67 4.02 -0.34 2.04 0 0 Z " fill="#1D1D1D" transform="translate(369,616)"/>
<path d="M0 0 C1.32 0.66 2.64 1.32 4 2 C2.70700306 4.88437779 1.34058637 6.87219421 -1 9 C-1.66 8.34 -2.32 7.68 -3 7 C-2.625 4.875 -2.625 4.875 -2 3 C-1.34 3 -0.68 3 0 3 C0 2.01 0 1.02 0 0 Z " fill="#231E20" transform="translate(652,550)"/>
<path d="M0 0 C-1.31224548 3.93673644 -2.91910327 6.22719294 -6 9 C-6.96516243 5.99727245 -7.22393475 3.95784231 -6 1 C-3 0 -3 0 0 0 Z " fill="#565455" transform="translate(352,388)"/>
<path d="M0 0 C0.33 0 0.66 0 1 0 C1.33 2.97 1.66 5.94 2 9 C2.66 9 3.32 9 4 9 C3.625 11.4375 3.625 11.4375 3 14 C2.01 14.495 2.01 14.495 1 15 C0.34 14.34 -0.32 13.68 -1 13 C-0.9765625 9.9609375 -0.9765625 9.9609375 -0.625 6.375 C-0.51414062 5.18648438 -0.40328125 3.99796875 -0.2890625 2.7734375 C-0.19367188 1.85820312 -0.09828125 0.94296875 0 0 Z " fill="#747172" transform="translate(299,458)"/>
<path d="M0 0 C0.763125 0.20625 1.52625 0.4125 2.3125 0.625 C1.9825 1.285 1.6525 1.945 1.3125 2.625 C2.6325 3.285 3.9525 3.945 5.3125 4.625 C5.3125 5.285 5.3125 5.945 5.3125 6.625 C1.25968288 5.39972971 -2.13110764 3.92619506 -5.6875 1.625 C-2.6875 -0.375 -2.6875 -0.375 0 0 Z " fill="#6F6D6D" transform="translate(401.6875,657.375)"/>
<path d="M0 0 C1.31611677 0.95336021 2.62778961 1.91285774 3.9375 2.875 C4.66839844 3.40867187 5.39929688 3.94234375 6.15234375 4.4921875 C8 6 8 6 9 8 C8.01 8.33 7.02 8.66 6 9 C3.4375 7.125 3.4375 7.125 1 5 C0.34 4.67 -0.32 4.34 -1 4 C-0.67 2.68 -0.34 1.36 0 0 Z " fill="#424142" transform="translate(376,618)"/>
<path d="M0 0 C0.66 0.99 1.32 1.98 2 3 C1.34 4.32 0.68 5.64 0 7 C-0.66 7 -1.32 7 -2 7 C-2 6.34 -2 5.68 -2 5 C-3.65 5.33 -5.3 5.66 -7 6 C-4.9859524 2.9789286 -3.36720387 1.39332574 0 0 Z " fill="#373536" transform="translate(575,548)"/>
<path d="M0 0 C0.99 0.33 1.98 0.66 3 1 C2.01 2.485 2.01 2.485 1 4 C0.63566627 6.12337771 0.63566627 6.12337771 0.5859375 8.44921875 C0.54726563 9.29677734 0.50859375 10.14433594 0.46875 11.01757812 C0.4378125 11.89865234 0.406875 12.77972656 0.375 13.6875 C0.33632813 14.58017578 0.29765625 15.47285156 0.2578125 16.39257812 C0.16359782 18.5948462 0.07798412 20.79710722 0 23 C-0.33 23 -0.66 23 -1 23 C-1.02902429 19.72918529 -1.04680684 16.4584037 -1.0625 13.1875 C-1.07087891 12.25873047 -1.07925781 11.32996094 -1.08789062 10.37304688 C-1.09111328 9.48037109 -1.09433594 8.58769531 -1.09765625 7.66796875 C-1.10289307 6.84578857 -1.10812988 6.0236084 -1.11352539 5.17651367 C-1 3 -1 3 0 0 Z " fill="#5E5D5E" transform="translate(418,411)"/>
<path d="M0 0 C0 0.99 0 1.98 0 3 C0.94978897 5.15028304 0.94978897 5.15028304 2 7 C1.21625 7.144375 0.4325 7.28875 -0.375 7.4375 C-2.96421018 7.87798925 -2.96421018 7.87798925 -5 9 C-5.66 8.34 -6.32 7.68 -7 7 C-4.69 4.69 -2.38 2.38 0 0 Z " fill="#3F3D3D" transform="translate(450,352)"/>
<path d="M0 0 C0 0.66 0 1.32 0 2 C1.32 2.33 2.64 2.66 4 3 C3.01 3.99 2.02 4.98 1 6 C1 5.34 1 4.68 1 4 C0.071875 4.309375 0.071875 4.309375 -0.875 4.625 C-1.57625 4.74875 -2.2775 4.8725 -3 5 C-3.66 4.34 -4.32 3.68 -5 3 C-5 2.34 -5 1.68 -5 1 C-3 0 -3 0 0 0 Z " fill="#1F1B1C" transform="translate(565,313)"/>
<path d="M0 0 C2.25 0.125 2.25 0.125 5 1 C7.3125 4.0625 7.3125 4.0625 9 7 C8.01 7.495 8.01 7.495 7 8 C7 7.34 7 6.68 7 6 C5.35 5.67 3.7 5.34 2 5 C1.67 4.01 1.34 3.02 1 2 C0.67 1.34 0.34 0.68 0 0 Z " fill="#201C1D" transform="translate(334,601)"/>
<path d="M0 0 C0 0.99 0 1.98 0 3 C0.3062434 4.33981486 0.63451555 5.67511887 1 7 C0.38125 7.144375 -0.2375 7.28875 -0.875 7.4375 C-3.03258322 7.93152225 -3.03258322 7.93152225 -5 9 C-5.66 8.34 -6.32 7.68 -7 7 C-4.69 4.69 -2.38 2.38 0 0 Z " fill="#3F3E3E" transform="translate(442,360)"/>
<path d="M0 0 C3 1.75 3 1.75 6 4 C6 5.32 6 6.64 6 8 C4.0625 7.25 4.0625 7.25 2 6 C1.375 3.9375 1.375 3.9375 1 2 C0.34 1.67 -0.32 1.34 -1 1 C-0.67 0.67 -0.34 0.34 0 0 Z " fill="#1F1B1C" transform="translate(367,633)"/>
<path d="M0 0 C3.3 0 6.6 0 10 0 C8.38262276 3.23475448 7.52370777 4.70572021 5 7 C4.9175 6.21625 4.835 5.4325 4.75 4.625 C4.5025 3.75875 4.255 2.8925 4 2 C2.68 1.34 1.36 0.68 0 0 Z " fill="#565656" transform="translate(640,597)"/>
<path d="M0 0 C1.32 0.33 2.64 0.66 4 1 C4 1.66 4 2.32 4 3 C4.66 3.33 5.32 3.66 6 4 C6 5.98 6 7.96 6 10 C3.25722422 6.80009492 1.3697164 3.99500618 0 0 Z " fill="#575456" transform="translate(633,395)"/>
<path d="M0 0 C4.76197836 2.31993818 4.76197836 2.31993818 5.875 5.5 C6 8 6 8 5 11 C4.16151196 9.54462432 3.32936066 8.08559627 2.5 6.625 C1.80390625 5.40683594 1.80390625 5.40683594 1.09375 4.1640625 C0 2 0 2 0 0 Z " fill="#686667" transform="translate(321,582)"/>
<path d="M0 0 C0.99 0.99 1.98 1.98 3 3 C2.34 4.65 1.68 6.3 1 8 C0.34 8 -0.32 8 -1 8 C-1 7.34 -1 6.68 -1 6 C-1.66 6 -2.32 6 -3 6 C-2 4 -1 2 0 0 Z " fill="#403D3D" transform="translate(341,575)"/>
<path d="M0 0 C1.65 1.65 3.3 3.3 5 5 C4.01 6.485 4.01 6.485 3 8 C2.34 7.01 1.68 6.02 1 5 C0.01 4.67 -0.98 4.34 -2 4 C-2 3.01 -2 2.02 -2 1 C-1.34 0.67 -0.68 0.34 0 0 Z " fill="#444243" transform="translate(637,366)"/>
<path d="M0 0 C0.33 1.65 0.66 3.3 1 5 C-0.32 4.67 -1.64 4.34 -3 4 C-3.33 4.99 -3.66 5.98 -4 7 C-5.32 6.67 -6.64 6.34 -8 6 C-7.0479279 4.99403703 -6.08812654 3.99538437 -5.125 3 C-4.59132813 2.443125 -4.05765625 1.88625 -3.5078125 1.3125 C-2 0 -2 0 0 0 Z " fill="#5B5B5B" transform="translate(366,343)"/>
<path d="M0 0 C1.98 0.99 1.98 0.99 4 2 C4.33 1.34 4.66 0.68 5 0 C5.66 0 6.32 0 7 0 C7 1.32 7 2.64 7 4 C6.34 4 5.68 4 5 4 C4.67 5.32 4.34 6.64 4 8 C2.68 5.36 1.36 2.72 0 0 Z " fill="#454344" transform="translate(639,406)"/>
<path d="M0 0 C1.32 1.32 2.64 2.64 4 4 C3.34 5.32 2.68 6.64 2 8 C1.01 7.34 0.02 6.68 -1 6 C-1.25 3.4375 -1.25 3.4375 -1 1 C-0.67 0.67 -0.34 0.34 0 0 Z " fill="#3A3A3A" transform="translate(645,376)"/>
<path d="M0 0 C0.598125 0.226875 1.19625 0.45375 1.8125 0.6875 C-0.96030706 3.76839673 -3.25076356 5.37525452 -7.1875 6.6875 C-3.9375 -0.5625 -3.9375 -0.5625 0 0 Z " fill="#5C5859" transform="translate(593.1875,650.3125)"/>
<path d="M0 0 C-3.465 2.97 -3.465 2.97 -7 6 C-7 4.02 -7 2.04 -7 0 C-3.98968256 -0.93423645 -3.13349732 -1.04449911 0 0 Z " fill="#444142" transform="translate(632,621)"/>
<path d="M0 0 C0.33 0 0.66 0 1 0 C1.33 2.31 1.66 4.62 2 7 C1.34 7 0.68 7 0 7 C0 7.99 0 8.98 0 10 C-0.99 10.33 -1.98 10.66 -3 11 C-2.01 7.37 -1.02 3.74 0 0 Z " fill="#706D6E" transform="translate(652,543)"/>
<path d="M0 0 C0.99 0.99 1.98 1.98 3 3 C2.67 3.99 2.34 4.98 2 6 C0.68 6 -0.64 6 -2 6 C-2.33 4.68 -2.66 3.36 -3 2 C-2.01 1.34 -1.02 0.68 0 0 Z " fill="#1F1B1C" transform="translate(402,402)"/>
<path d="M0 0 C0.66 0.33 1.32 0.66 2 1 C2.625 3.0625 2.625 3.0625 3 5 C1.68 5.33 0.36 5.66 -1 6 C-1.66 4.68 -2.32 3.36 -3 2 C-2.01 1.34 -1.02 0.68 0 0 Z " fill="#211F20" transform="translate(645,400)"/>
<path d="M0 0 C0.66 0.99 1.32 1.98 2 3 C0.68 4.32 -0.64 5.64 -2 7 C-2.99 6.34 -3.98 5.68 -5 5 C-3.35 3.35 -1.7 1.7 0 0 Z " fill="#525252" transform="translate(349,358)"/>
<path d="M0 0 C1.35439668 2.70879335 1.06501451 5.00933268 1 8 C-0.9375 7.25 -0.9375 7.25 -3 6 C-3.75 3.875 -3.75 3.875 -4 2 C-2.68 1.34 -1.36 0.68 0 0 Z " fill="#1E1B1C" transform="translate(559,647)"/>
<path d="M0 0 C2.3125 -0.25 2.3125 -0.25 5 0 C6.8125 2 6.8125 2 8 4 C6.68 4.33 5.36 4.66 4 5 C3.67 4.34 3.34 3.68 3 3 C0.97536745 2.34786708 0.97536745 2.34786708 -1 2 C-0.67 1.34 -0.34 0.68 0 0 Z " fill="#4B4B4B" transform="translate(368,614)"/>
<path d="M0 0 C0.66 0 1.32 0 2 0 C2 0.99 2 1.98 2 3 C2.928125 3.12375 2.928125 3.12375 3.875 3.25 C6 4 6 4 7.25 6.0625 C7.4975 6.701875 7.745 7.34125 8 8 C4.18315774 6.44499019 1.80804268 3.96404505 -1 1 C-0.67 0.67 -0.34 0.34 0 0 Z " fill="#6D6C6D" transform="translate(363,633)"/>
<path d="M0 0 C1.32 0 2.64 0 4 0 C3.67 1.98 3.34 3.96 3 6 C3.66 6.33 4.32 6.66 5 7 C4.01 8.485 4.01 8.485 3 10 C2.01 6.7 1.02 3.4 0 0 Z " fill="#747172" transform="translate(648,424)"/>
<path d="M0 0 C2.475 0.99 2.475 0.99 5 2 C3.35 3.65 1.7 5.3 0 7 C-0.38133299 5.0085944 -0.71325582 3.00720923 -1 1 C-0.67 0.67 -0.34 0.34 0 0 Z " fill="#575757" transform="translate(362,369)"/>
<path d="M0 0 C5.75 1.75 5.75 1.75 8 4 C5.03 3.67 2.06 3.34 -1 3 C-0.67 2.01 -0.34 1.02 0 0 Z " fill="#464243" transform="translate(410,642)"/>
<path d="M0 0 C4.875 1.75 4.875 1.75 6 4 C4.02 4.99 4.02 4.99 2 6 C0 3 0 3 0 0 Z " fill="#4F4E4E" transform="translate(385,626)"/>
<path d="M0 0 C0.66 0.33 1.32 0.66 2 1 C2 2.32 2 3.64 2 5 C0 6.75 0 6.75 -2 8 C-2.6875 6.25 -2.6875 6.25 -3 4 C-1.5625 1.75 -1.5625 1.75 0 0 Z " fill="#1D1C1C" transform="translate(645,566)"/>
<path d="M0 0 C0 2.66053211 -0.19335496 4.49940039 -1 7 C-1.66 7.66 -2.32 8.32 -3 9 C-3.75 6.75 -3.75 6.75 -4 4 C-2.0625 1.6875 -2.0625 1.6875 0 0 Z " fill="#535152" transform="translate(583,538)"/>
<path d="M0 0 C3 3.75 3 3.75 3 6 C1.35 6.33 -0.3 6.66 -2 7 C-2.6875 5.1875 -2.6875 5.1875 -3 3 C-1.5625 1.25 -1.5625 1.25 0 0 Z " fill="#201B1C" transform="translate(659,400)"/>
<path d="M0 0 C0.33 0.99 0.66 1.98 1 3 C1.66 3 2.32 3 3 3 C3 4.65 3 6.3 3 8 C-1.875 3.25 -1.875 3.25 -3 1 C-2.01 0.67 -1.02 0.34 0 0 Z " fill="#4E4E4E" transform="translate(621,375)"/>
<path d="M0 0 C1.65 0 3.3 0 5 0 C5 0.66 5 1.32 5 2 C5.66 2.33 6.32 2.66 7 3 C6.01 4.485 6.01 4.485 5 6 C3.35 4.02 1.7 2.04 0 0 Z " fill="#6A6A6A" transform="translate(612,370)"/>
<path d="M0 0 C0.625 1.8125 0.625 1.8125 1 4 C0.01 5.485 0.01 5.485 -1 7 C-2.32 6.34 -3.64 5.68 -5 5 C-3.35 3.35 -1.7 1.7 0 0 Z " fill="#464244" transform="translate(355,352)"/>
<path d="M0 0 C1.4606285 2.64738916 2 3.89448334 2 7 C0.68 6.34 -0.64 5.68 -2 5 C-1.125 1.125 -1.125 1.125 0 0 Z " fill="#312F30" transform="translate(453,349)"/>
<path d="M0 0 C1.98 0 3.96 0 6 0 C5.34 1.32 4.68 2.64 4 4 C2.68 4 1.36 4 0 4 C0 2.68 0 1.36 0 0 Z " fill="#1F1B1C" transform="translate(585,650)"/>
<path d="M0 0 C1.32 0.33 2.64 0.66 4 1 C3.67 3.31 3.34 5.62 3 8 C1.0549 5.08235 0.54723683 3.37462715 0 0 Z " fill="#343434" transform="translate(641,599)"/>
<path d="M0 0 C3.96 0 7.92 0 12 0 C11.34 1.32 10.68 2.64 10 4 C9.67 3.01 9.34 2.02 9 1 C6.03 1 3.06 1 0 1 C0 0.67 0 0.34 0 0 Z " fill="#343233" transform="translate(624,515)"/>
<path d="M0 0 C2 4 2 4 2 6 C0.37373596 7.38232443 -1.2925002 8.71937515 -3 10 C-2.01 6.7 -1.02 3.4 0 0 Z " fill="#787778" transform="translate(310,419)"/>
<path d="M0 0 C-1.04874998 2.62187494 -1.64931313 3.79371361 -4.125 5.25 C-4.74375 5.4975 -5.3625 5.745 -6 6 C-6 4.68 -6 3.36 -6 2 C-2.25 0 -2.25 0 0 0 Z " fill="#5E5C5D" transform="translate(395,346)"/>
<path d="M0 0 C3.65316671 1.24976756 4.78065836 1.67098753 7 5 C5.68 5.33 4.36 5.66 3 6 C0 2.25 0 2.25 0 0 Z " fill="#4F4F4F" transform="translate(598,331)"/>
<path d="M0 0 C2.475 0.495 2.475 0.495 5 1 C5 1.99 5 2.98 5 4 C3.68 4.33 2.36 4.66 1 5 C0.67 3.35 0.34 1.7 0 0 Z " fill="#383838" transform="translate(592,328)"/>
<path d="M0 0 C4.455 0.99 4.455 0.99 9 2 C8.01 2.66 7.02 3.32 6 4 C6 3.34 6 2.68 6 2 C3.69 2.33 1.38 2.66 -1 3 C-0.67 2.01 -0.34 1.02 0 0 Z " fill="#646162" transform="translate(540,304)"/>
<path d="M0 0 C2.31 0.33 4.62 0.66 7 1 C3.5980513 3.09350689 0.94727588 3.17942163 -3 3 C-2.01 2.67 -1.02 2.34 0 2 C0 1.34 0 0.68 0 0 Z " fill="#878686" transform="translate(525,677)"/>
<path d="M0 0 C0.45375 0.495 0.9075 0.99 1.375 1.5 C2.87635519 3.22609337 2.87635519 3.22609337 5 3 C5 3.66 5 4.32 5 5 C2.69 5 0.38 5 -2 5 C-1.34 3.35 -0.68 1.7 0 0 Z " fill="#484848" transform="translate(641,570)"/>
<path d="M0 0 C0 3 0 3 -1 6 C-2.65 5.67 -4.3 5.34 -6 5 C-4.68 4.34 -3.36 3.68 -2 3 C-2 2.34 -2 1.68 -2 1 C-1.34 0.67 -0.68 0.34 0 0 Z " fill="#1D191A" transform="translate(570,553)"/>
<path d="M0 0 C0.66 0.33 1.32 0.66 2 1 C2 2.32 2 3.64 2 5 C1.01 5.66 0.02 6.32 -1 7 C-1.33 6.01 -1.66 5.02 -2 4 C-1.34 4 -0.68 4 0 4 C-0.33 3.01 -0.66 2.02 -1 1 C-0.67 0.67 -0.34 0.34 0 0 Z " fill="#1D1C1D" transform="translate(315,411)"/>
<path d="M0 0 C1.98 0.495 1.98 0.495 4 1 C3.67 2.32 3.34 3.64 3 5 C1.68 4.34 0.36 3.68 -1 3 C-0.67 2.01 -0.34 1.02 0 0 Z " fill="#1C1C1C" transform="translate(412,314)"/>
</svg>
